<?xml version="1.0" encoding="UTF-8" standalone="no"?>
<svg
   xmlns:dc="http://purl.org/dc/elements/1.1/"
   xmlns:cc="http://creativecommons.org/ns#"
   xmlns:rdf="http://www.w3.org/1999/02/22-rdf-syntax-ns#"
   xmlns:svg="http://www.w3.org/2000/svg"
   xmlns="http://www.w3.org/2000/svg"
   xmlns:sodipodi="http://sodipodi.sourceforge.net/DTD/sodipodi-0.dtd"
   xmlns:inkscape="http://www.inkscape.org/namespaces/inkscape"
   inkscape:version="1.0 (4035a4fb49, 2020-05-01)"
   sodipodi:docname="PickleBall.svg"
   version="1.1"
   height="512"
   width="512"
   viewBox="0 0 128 128"
   id="icon">
  <metadata
     id="metadata893">
    <rdf:RDF>
      <cc:Work
         rdf:about="">
        <dc:format>image/svg+xml</dc:format>
        <dc:type
           rdf:resource="http://purl.org/dc/dcmitype/StillImage" />
        <dc:title></dc:title>
      </cc:Work>
    </rdf:RDF>
  </metadata>
  <defs
     id="defs891" />
  <sodipodi:namedview
     inkscape:snap-grids="true"
     inkscape:current-layer="icon"
     inkscape:window-maximized="1"
     inkscape:window-y="-8"
     inkscape:window-x="-8"
     inkscape:cy="256"
     inkscape:cx="348.5154"
     inkscape:zoom="1.2890625"
     showgrid="false"
     id="namedview889"
     inkscape:window-height="1857"
     inkscape:window-width="1200"
     inkscape:pageshadow="2"
     inkscape:pageopacity="0"
     guidetolerance="10"
     gridtolerance="10"
     objecttolerance="10"
     borderopacity="1"
     bordercolor="#666666"
     pagecolor="#ffffff" />
  <path
     sodipodi:nodetypes="csccccccccsc"
     style="fill:#000000;fill-opacity:1"
     id="path864"
     fill="#e1b378"
     d="M 95.054939,20.392576 C 68.130091,-1.2909091 66.539545,8.4845455 46.13303,31.024394 31.696378,46.97028 19.369394,58.883242 31.689,69.946 c 1.455397,3.20733 0.630579,6.989782 -2.028,9.3 L 4.514,101.923 c -1.5656628,1.41172 -1.6286274,3.84726 -0.138,5.338 l 8.658,8.658 c 1.490735,1.49063 3.926277,1.42766 5.338,-0.138 L 41.049,90.635 c 2.310218,-2.658579 6.09267,-3.483397 9.3,-2.028 C 66.260242,99.57203 66.624748,99.678158 91.985758,67.76297 118.13306,34.858285 115.38485,37.231576 95.054939,20.392576 Z" />
  <g
     id="g870"
     opacity="0.5">
    <path
       style="fill:#e8c79c;fill-opacity:0;stroke-width:0.0781535"
       id="path868"
       fill="#e8c79c"
       d="m 117.37175,4.7125487 c -1.91057,0.7400777 -4.64338,0.9344971 -6.73804,0.5516899 a 1.0010562,0.38776864 0 0 0 -1.16781,0.098888 L 106.61731,6.58631 a 0.46172649,0.17885415 0 0 1 -0.67005,0.00666 l -1.0872,-0.4211366 a 0.46273106,0.17924328 0 0 1 0.0172,-0.2595501 l 3.15863,-1.1027961 a 1.0010562,0.38776864 0 0 0 0.25529,-0.4523643 5.4348611,2.1052452 0 0 1 -0.42695,-1.2177842 6.4875271,2.5130054 0 0 1 1.8503,-1.3928929 c 2.25175,-0.87223628 5.65072,-0.98630018 7.79799,-0.2904374 l 0.005,0.0019 c 0.10548,0.035168 0.21108,0.072232 0.31167,0.1112427 2.11575,0.8194604 1.90981,2.2264594 -0.45734,3.143397 z" />
  </g>
  <path
     style="fill:#000000;fill-opacity:0"
     id="path874"
     fill="#e8c79c"
     d="M99.24,72.489C84.025,87.7,62.262,91.7,45.581,83.834a7.972,7.972,0,0,0-9.3,2.033L13.6,111.011a3.677,3.677,0,0,1-5.336.137l-3.889-3.889a3.685,3.685,0,0,1,.137-5.336L29.662,79.251a7.972,7.972,0,0,0,2.033-9.3,43.281,43.281,0,0,1-3.4-25.036A51.664,51.664,0,0,1,43.03,16.279c17.932-17.932,45-20.277,62.1-5.971l.039.039C119.537,27.449,117.192,54.537,99.24,72.489Z" />
  <path
     style="fill:#010000;fill-opacity:0"
     id="path876"
     fill="#ef5361"
     d="M99.24,72.489A51.664,51.664,0,0,1,70.608,87.225L28.294,44.912A51.664,51.664,0,0,1,43.03,16.279C60.982-1.673,88.08-4.008,105.172,10.347,119.537,27.449,117.192,54.537,99.24,72.489Z" />
  <circle
     style="fill:#f0f500;fill-opacity:1"
     id="circle882"
     fill="#f0f5f9"
     r="16.736"
     cy="110.262"
     cx="107.968" />
  <path
     style="fill:#d9e200;fill-opacity:1"
     id="path884"
     fill="#d9e2e9"
     d="M124.7,110.266a16.737,16.737,0,0,1-31.353,8.151,16.753,16.753,0,0,0,21.978-23.19A16.751,16.751,0,0,1,124.7,110.266Z" />
</svg>
