<?xml version="1.0"?>
<svg xmlns="http://www.w3.org/2000/svg" id="icon" viewBox="0 0 128 128" width="512" height="512"><path d="M107.661,12.635C90.821-4.2,61.885-2.57,43.03,16.285c-15.21,15.21-19.2,36.974-11.341,53.661a7.962,7.962,0,0,1-2.028,9.3L4.514,101.923a3.682,3.682,0,0,0-.138,5.338l8.658,8.658a3.682,3.682,0,0,0,5.338-.138L41.049,90.635a7.962,7.962,0,0,1,9.3-2.028C67.036,96.469,88.8,92.476,104.01,77.266,122.866,58.41,124.5,29.474,107.661,12.635Z" fill="#e1b378"/><path d="M75.374,92A51.661,51.661,0,0,0,104.01,77.266c18.855-18.855,20.49-47.792,3.65-64.631S61.885-2.57,43.03,16.285A51.661,51.661,0,0,0,28.3,44.921Z" fill="#f14253"/><g opacity="0.5"><path d="M104.009,77.258C88.794,92.473,67.031,96.47,50.35,88.6a7.972,7.972,0,0,0-9.3,2.033L18.365,115.78a3.677,3.677,0,0,1-5.336.137l-8.658-8.658a3.685,3.685,0,0,1,.137-5.336L29.662,79.251a7.972,7.972,0,0,0,2.033-9.3,43.281,43.281,0,0,1-3.4-25.036A51.664,51.664,0,0,1,43.03,16.279c17.932-17.932,45-20.277,62.1-5.971l.039.039c.84.723,1.681,1.485,2.482,2.287C124.5,29.481,122.86,58.407,104.009,77.258Z" fill="#e8c79c"/></g><path d="M75.374,92A51.661,51.661,0,0,0,104.01,77.266c18.855-18.855,20.49-47.792,3.65-64.631S61.885-2.57,43.03,16.285A51.661,51.661,0,0,0,28.3,44.921Z" fill="#da2a47"/><path d="M99.24,72.489C84.025,87.7,62.262,91.7,45.581,83.834a7.972,7.972,0,0,0-9.3,2.033L13.6,111.011a3.677,3.677,0,0,1-5.336.137l-3.889-3.889a3.685,3.685,0,0,1,.137-5.336L29.662,79.251a7.972,7.972,0,0,0,2.033-9.3,43.281,43.281,0,0,1-3.4-25.036A51.664,51.664,0,0,1,43.03,16.279c17.932-17.932,45-20.277,62.1-5.971l.039.039C119.537,27.449,117.192,54.537,99.24,72.489Z" fill="#e8c79c"/><path d="M99.24,72.489A51.664,51.664,0,0,1,70.608,87.225L28.294,44.912A51.664,51.664,0,0,1,43.03,16.279C60.982-1.673,88.08-4.008,105.172,10.347,119.537,27.449,117.192,54.537,99.24,72.489Z" fill="#ef5361"/><path d="M15.634,118a4.639,4.639,0,0,1-3.307-1.372l-8.658-8.658a4.681,4.681,0,0,1,.175-6.788L28.99,78.5a6.98,6.98,0,0,0,1.794-8.13C22.5,52.786,27.135,30.766,42.322,15.578A52.021,52.021,0,0,1,76.045.076c12.5-.711,23.975,3.5,32.322,11.852h0c8.349,8.348,12.558,19.827,11.852,32.323a52.025,52.025,0,0,1-15.5,33.722C89.53,93.16,67.509,97.8,49.923,89.512A6.98,6.98,0,0,0,41.8,91.3L19.114,116.451A4.636,4.636,0,0,1,15.76,118ZM78.73,2q-1.279,0-2.573.073A50.028,50.028,0,0,0,43.736,16.992C29.144,31.585,24.665,52.694,32.593,69.52a8.987,8.987,0,0,1-2.27,10.474L5.184,102.666a2.683,2.683,0,0,0-.1,3.888l8.658,8.658a2.682,2.682,0,0,0,3.888-.1L40.308,89.965A8.982,8.982,0,0,1,50.774,87.7C67.6,95.629,88.709,91.151,103.3,76.559a50.029,50.029,0,0,0,14.92-32.421c.673-11.919-3.329-22.856-11.27-30.8h0A39.331,39.331,0,0,0,78.73,2Z" fill="#2f3a5a"/><path d="M75.374,93a1,1,0,0,1-.707-.293L27.59,45.628a1,1,0,0,1-.281-.857A52.981,52.981,0,0,1,42.322,15.578,52.021,52.021,0,0,1,76.045.076c12.5-.711,23.975,3.5,32.322,11.852s12.558,19.827,11.852,32.323a52.025,52.025,0,0,1-15.5,33.722A53,53,0,0,1,75.524,92.987,1.039,1.039,0,0,1,75.374,93ZM29.364,44.574,75.722,90.932A51.051,51.051,0,0,0,103.3,76.559a50.029,50.029,0,0,0,14.92-32.421c.673-11.919-3.329-22.856-11.27-30.8S88.072,1.4,76.157,2.073A50.028,50.028,0,0,0,43.736,16.992,51.038,51.038,0,0,0,29.364,44.574Z" fill="#2f3a5a"/><circle cx="107.968" cy="110.262" r="16.736" fill="#f0f5f9"/><path d="M124.7,110.266a16.737,16.737,0,0,1-31.353,8.151,16.753,16.753,0,0,0,21.978-23.19A16.751,16.751,0,0,1,124.7,110.266Z" fill="#d9e2e9"/><path d="M107.969,128A17.736,17.736,0,1,1,125.7,110.262,17.756,17.756,0,0,1,107.969,128Zm0-33.472A15.736,15.736,0,1,0,123.7,110.262,15.754,15.754,0,0,0,107.969,94.526Z" fill="#2f3a5a"/></svg>
